<svg xmlns="http://www.w3.org/2000/svg" width="140.105" height="140.105"><g fill="#fff"><path d="M71.9 73.44l-3.12-3.1 8.3 18.53 17.16-17.15-31.1-13.97 2.6 5.78 8.02 8.04c.52.52.52 1.35 0 1.87s-1.36.52-1.87 0zM74.7 35l1.42 1.42 21.56 10.3-17.36-17.35zM96.27 34.05l-10.3-10.3-3.77 3.74 17.82 17.8c.52.53.52 1.37 0 1.9-.2.17-.42.27-.67.32l12.92 6.17 20.57-20.58c2.07-2.07 2.07-5.43 0-7.5L112.2 5c-2.06-2.08-5.42-2.08-7.5 0l-9.37 9.37 17.8 17.8c.53.53.53 1.37 0 1.9-.5.5-1.34.5-1.86 0L93.45 16.23l-5.62 5.63 10.3 10.3c.53.53.53 1.37 0 1.9-.5.5-1.34.5-1.86-.02zM39.06 70.63l-3.75 3.75 10.32 10.3c.52.53.52 1.37 0 1.9-.5.5-1.35.5-1.87 0l-10.3-10.32-5.64 5.62L45.63 99.7c.53.52.53 1.36 0 1.88-.5.52-1.35.52-1.87 0L25.93 83.76l-3.75 3.75 10.3 10.33c.53.52.53 1.35 0 1.87-.5.52-1.34.52-1.86 0L20.3 89.4 14.68 95l17.82 17.83c.52.52.52 1.36 0 1.88-.52.53-1.36.53-1.88 0l-17.8-17.8-11.27 11.24c-2.07 2.07-2.07 5.43 0 7.5l20.64 20.63c2.05 2.08 5.42 2.08 7.5 0l29.2-29.23-15.35-31.92-4.5-4.5zM130.23 75.53l-.76-2.27c-1.55-6.2-5.7-8.67-5.7-8.67l-15.16-7.25-23.2-11.1-6.12-2.92-8.74-4.18-8.72-4.17c.85-1.66-.6-3.38-.6-3.38L39.1 9.48l-7.08 7.08S23.07 7.6 19.75 4.3c-1.6-1.6-3-2.02-4-2.02-1.1 0-1.76.47-1.76.47l-2.32 2.3L9.9 6.84 8.15 8.6s-2.32 3 1 6.3c3.3 3.32 12.27 12.28 12.27 12.28l-7.07 7.08 22.12 22.1s1.07.65 2.3.65c.44 0 .9-.07 1.35-.3l4.2 8.7 6.2 12.9 3.47 7.24 8.6 17.85 7.27 15.1s2.54 4.1 8.73 5.65l2.68.88s2.47 2.63 5.52 5.86c1.7 1.8 2.9 2.75 3.36 2.75.36 0 .3-.57-.3-1.75l-2.46-4.85 1.76.58L73.4 92.56l-14.3-31.9-3.06-6.8-.06-.15-.3-.65 2-2 .76-.75.65.3 2.17.97 6.8 3.06 29.85 13.4L133 83.78l-.88-2.58 5.83 2.8s3.16-1.48 1.83-3.7l-9.55-4.77z"/></g></svg>