<svg xmlns="http://www.w3.org/2000/svg" width="221.1" height="221.1"><path fill="#fff" d="M119.12 186.28c-1.22-.06-2.38-.6-3.2-1.5-.84-.9-1.28-2.1-1.22-3.34l.68-10.42c.1-2.56 2.27-4.52 4.8-4.42l9-.6c1.15-4.03 1.65-4.67 4-8.17l-5.9-6.4c-1.72-1.85-1.6-4.82.28-6.5l9-8.47c.9-.84 2.08-1.26 3.3-1.22 1.22.05 2.38.6 3.2 1.5l5.9 6.4c3.64-2 4.82-2.1 8.93-2.9l.36-8.68c.1-2.55 2.28-4.5 4.8-4.4l10.85-.06c1.04.07 1.92.5 2.66 1.1-2.97-22-14.77-31.57-30.35-31.57h-41.93c22.63-3.3 39.97-22.38 39.97-45.5 0-25.4-20.98-46-46.95-46-25.9 0-46.92 20.6-46.92 46 0 23.1 17.34 42.17 39.98 45.5H48.4c-18.1 0-32.8 19.37-32.8 39.4v61.3h112.38c-1.75-3.38-3.07-6.97-3.8-10.7l-5.06-.35zM206.4 173.4c-.65-.7-1.56-1.13-2.5-1.16l-6.76-.28c-.62-3.2-1.73-6.28-3.32-9.13l4.98-4.56c1.47-1.35 1.56-3.62.22-5.07l-4.94-5.42c-.65-.7-1.55-1.1-2.5-1.17-.95-.02-1.87.3-2.58.96l-4.97 4.56c-2.7-1.82-5.67-3.2-8.8-4.07l.3-6.78c.07-1.96-1.46-3.65-3.43-3.72l-7.33-.32c-1.97-.08-3.65 1.44-3.73 3.43l-.3 6.75c-3.2.65-6.27 1.76-9.1 3.34l-4.58-4.98c-.64-.7-1.54-1.12-2.5-1.15-.94-.04-1.86.3-2.57.95l-5.4 4.93c-1.46 1.34-1.56 3.6-.2 5.07l4.56 5c-1.83 2.68-3.2 5.65-4.1 8.78l-6.75-.3c-1.96-.07-3.65 1.47-3.73 3.44l-.32 7.3c-.04.95.3 1.9.94 2.6.64.7 1.54 1.1 2.5 1.15l6.74.28c.62 3.2 1.74 6.27 3.32 9.12l-4.98 4.57c-.7.63-1.1 1.54-1.15 2.5-.05.93.3 1.85.94 2.56l4.94 5.38c.65.7 1.55 1.13 2.5 1.18.96.03 1.88-.3 2.58-.94l4.98-4.56c2.7 1.82 5.67 3.18 8.8 4.1l-.3 6.75c-.07 1.98 1.48 3.65 3.44 3.74l7.3.3c.07 0 .12.03.16.03.9 0 1.77-.33 2.44-.96.7-.62 1.1-1.52 1.16-2.47l.28-6.76c3.2-.63 6.27-1.77 9.12-3.32l4.57 4.98c.65.7 1.53 1.1 2.48 1.15s1.9-.3 2.6-.95l5.38-4.93c1.47-1.35 1.56-3.62.22-5.08l-4.57-4.98c1.83-2.7 3.2-5.67 4.1-8.8l6.75.3c1.98.07 3.66-1.46 3.74-3.43l.3-7.32c.05-.96-.28-1.88-.93-2.6zM166 194.6c-9.23-.38-16.4-8.2-16-17.42.38-8.98 7.7-16 16.7-16 .23 0 .48 0 .7 0 9.23.4 16.4 8.2 16 17.43-.38 9.24-8.13 16.4-17.4 16z"/></svg>