<svg xmlns="http://www.w3.org/2000/svg" width="31.662" height="31.662"><g fill="#fff"><path d="M13.2 13.3h4.5c.22-1.26.9-2.36 1.85-3.15 0 0 0 0 .02 0 .8-.03 1.83-.24 2.82-.97.1-.1.23-.18.34-.28 1.4-1.25 2.2-3.33 2.3-6.2.02-.75-.57-1.4-1.33-1.42-.8-.04-1.38.57-1.4 1.32-.1 2.17-.62 3.67-1.52 4.35-.2.15-.4.26-.6.33 0 0-.02 0-.03 0-.6-.57-1.4-.84-1.97-.84h-6.8c-1.24 0-2.23 1.25-2.25 2.62 2.07.5 3.68 2.2 4.06 4.25z"/><ellipse cx="14.78" cy="3.195" rx="3.261" ry="3.195"/><path d="M14.36 21.55c0-2.48-1.07-3.53-2.55-3.53H8.38c1.86-.27 3.28-1.83 3.28-3.73 0-2.1-1.72-3.78-3.85-3.78-2.12 0-3.84 1.7-3.84 3.77 0 1.9 1.42 3.45 3.27 3.72H3.8c-1.5 0-2.7 1.6-2.7 3.23v5.02h13.26v-4.72zM19.1 14.3c0 1.9 1.42 3.45 3.27 3.72H18.95c-1.5 0-2.63 1.6-2.63 3.23v5.02h13.15v-4.72c0-2.45-1.03-3.48-2.48-3.5-.03 0-.03-.03-.05-.03H23.5c1.87-.27 3.3-1.83 3.3-3.73 0-2.1-1.74-3.77-3.86-3.77S19.1 12.2 19.1 14.3zM.03 28.42h31.6v3.24H.03z"/></g></svg>